<svg width="20" height="20" viewBox="0 0 20 20" fill="none" xmlns="http://www.w3.org/2000/svg">
<path fill-rule="evenodd" clip-rule="evenodd" d="M15.621 4.37895C15.0584 3.81654 14.2955 3.50059 13.5 3.50059C12.7045 3.50059 11.9416 3.81654 11.379 4.37895L4.37903 11.379C3.83242 11.9446 3.52986 12.7024 3.5365 13.489C3.54315 14.2756 3.85848 15.0281 4.41458 15.5844C4.97067 16.1408 5.72303 16.4565 6.50962 16.4635C7.29621 16.4705 8.05409 16.1683 8.62003 15.622H8.62103L9.11803 15.122C9.25901 14.9848 9.44824 14.9085 9.64493 14.9095C9.84163 14.9106 10.03 14.9888 10.1696 15.1275C10.3091 15.2661 10.3886 15.454 10.391 15.6507C10.3933 15.8473 10.3183 16.0371 10.182 16.179L9.68403 16.68L9.68203 16.682C8.83811 17.5259 7.69351 18 6.50003 18C5.30655 18 4.16195 17.5259 3.31803 16.682C2.47411 15.838 2 14.6934 2 13.5C2 12.3065 2.47411 11.1619 3.31803 10.318L10.318 3.31795C11.1614 2.4735 12.3057 1.99868 13.4992 1.99793C14.6927 1.99718 15.8376 2.47056 16.682 3.31395C17.5265 4.15734 18.0013 5.30164 18.0021 6.49512C18.0028 7.68861 17.5294 8.8335 16.686 9.67795L13.231 13.231C12.9898 13.4854 12.7 13.6889 12.3789 13.8295C12.0577 13.97 11.7116 14.0449 11.3611 14.0495C11.0105 14.0542 10.6626 13.9886 10.3378 13.8566C10.013 13.7246 9.71796 13.5288 9.47005 13.2809C9.22215 13.033 9.02642 12.738 8.89441 12.4132C8.7624 12.0884 8.69678 11.7405 8.70144 11.3899C8.7061 11.0393 8.78093 10.6933 8.92153 10.3721C9.06212 10.0509 9.26562 9.76118 9.52003 9.51995L12.97 6.06895C13.0392 5.99729 13.1219 5.94011 13.2134 5.90076C13.3049 5.86142 13.4033 5.84068 13.5029 5.83977C13.6025 5.83886 13.7012 5.85779 13.7934 5.89545C13.8856 5.93312 13.9694 5.98877 14.0398 6.05916C14.1103 6.12954 14.166 6.21325 14.2038 6.30541C14.2415 6.39756 14.2605 6.49631 14.2597 6.5959C14.2589 6.69548 14.2383 6.79391 14.199 6.88543C14.1597 6.97695 14.1026 7.05973 14.031 7.12895L10.581 10.58C10.4763 10.6842 10.3931 10.808 10.3362 10.9443C10.2794 11.0807 10.2499 11.2269 10.2495 11.3746C10.2491 11.5224 10.2779 11.6687 10.3341 11.8054C10.3903 11.942 10.4728 12.0662 10.577 12.171C10.6812 12.2757 10.805 12.3589 10.9414 12.4157C11.0777 12.4726 11.224 12.5021 11.3717 12.5025C11.5194 12.5028 11.6658 12.4741 11.8024 12.4179C11.9391 12.3617 12.0633 12.2792 12.168 12.175L15.622 8.62195C16.1844 8.05937 16.5004 7.29645 16.5004 6.50095C16.5004 5.70546 16.1844 4.94254 15.622 4.37995" fill="black"/>
</svg>
